<svg xmlns="http://www.w3.org/2000/svg" xmlns:xlink="http://www.w3.org/1999/xlink" width="500" zoomAndPan="magnify" viewBox="0 0 375 374.999991" height="500" preserveAspectRatio="xMidYMid meet" version="1.0"><defs><clipPath id="id1"><path d="M 1.003906 0 L 373.753906 0 L 373.753906 375 L 1.003906 375 Z M 1.003906 0 " clip-rule="nonzero"/></clipPath></defs><g clip-path="url(#id1)"><path fill="#ffffff" d="M 173.199219 352.179688 C 162.554688 335.949219 147.136719 308.578125 154.105469 308.578125 C 155.734375 308.578125 173.777344 332.175781 177.113281 335.3125 C 183.421875 341.246094 187.074219 340.652344 199.605469 331.664062 C 202.996094 329.230469 221.339844 284.003906 223.585938 286.25 C 225.832031 288.5 207.773438 337.621094 200.738281 347.15625 C 195.566406 354.160156 188.050781 372.6875 185.773438 374.976562 C 185.773438 374.976562 183.527344 367.917969 173.203125 352.175781 Z M 74.15625 327.742188 C 72.414062 296.078125 74.515625 264.339844 79.957031 265.375 C 83.480469 266.046875 77.066406 273.625 81.746094 309.359375 C 82.96875 318.703125 90.0625 325.113281 92.160156 325.917969 C 96.371094 327.535156 121.003906 318.007812 130.96875 310.910156 C 137.691406 306.117188 138.210938 304.609375 136.761719 294.042969 C 135.890625 287.664062 136.566406 276.914062 138.265625 270.15625 C 139.964844 263.394531 140.820312 257.332031 140.164062 256.675781 C 139.507812 256.015625 134.019531 258.761719 127.964844 262.769531 C 110.386719 274.410156 92.800781 274.433594 62.863281 262.867188 C 49.550781 257.722656 34.476562 252.726562 29.359375 251.769531 C 24.246094 250.808594 15.1875 251.210938 15.1875 250.679688 C 15.1875 250.144531 24.792969 241.835938 30.578125 234.203125 C 36.359375 226.570312 41.097656 219.4375 41.105469 218.351562 C 41.121094 217.265625 67.726562 194.675781 70.789062 194.675781 C 76.621094 194.675781 52.488281 215.601562 47.453125 235.777344 C 46.121094 241.125 47.535156 242.796875 57.386719 247.574219 C 63.703125 250.632812 72.46875 253.855469 76.863281 254.734375 C 84 256.164062 85.59375 255.210938 91.835938 245.773438 C 95.675781 239.964844 103.601562 231.367188 109.445312 226.671875 C 115.285156 221.972656 120.066406 217.140625 120.066406 215.9375 C 120.066406 214.730469 114.925781 213.742188 108.640625 213.742188 C 93.90625 213.742188 74.796875 207.9375 62.296875 199.660156 C 52.960938 193.476562 1 135.304688 1 135.304688 C 1.507812 134.796875 22.191406 131.308594 42.449219 126.609375 C 62.703125 121.910156 80.144531 116.78125 81.210938 115.214844 C 82.273438 113.644531 83.160156 99.253906 83.183594 83.234375 L 76.4375 50.9375 L 104.933594 61.265625 C 138.800781 73.539062 142.761719 72.925781 147.195312 65.792969 C 149.28125 62.4375 158.46875 47.550781 167.609375 32.703125 C 182.359375 8.742188 186.234375 0.0117188 186.234375 0.0117188 C 186.234375 1.097656 196.164062 22.105469 205.542969 37.3125 C 214.921875 52.519531 223.570312 66.636719 224.765625 68.679688 C 226.59375 71.820312 230.398438 71.46875 249.160156 66.414062 C 261.382812 63.121094 274.585938 58.78125 278.492188 56.769531 C 282.402344 54.757812 289.828125 45.828125 290.726562 45.828125 C 291.628906 45.828125 288.179688 59.332031 287.332031 66.9375 C 286.488281 74.539062 286.699219 88.96875 287.800781 99 L 289.808594 117.238281 L 328.175781 126.648438 L 373.757812 133.894531 L 352.195312 153.179688 C 307.113281 193.492188 297.03125 210.992188 266.78125 213.171875 C 257.011719 213.875 249.019531 214.714844 249.019531 215.039062 C 249.019531 215.363281 257.9375 224.695312 268.835938 235.78125 C 290.6875 258.003906 291.542969 258.226562 313.105469 247.414062 C 321.800781 243.054688 330.722656 234.050781 329.683594 228.007812 C 324.042969 195.039062 306.644531 190.535156 312.070312 184.949219 C 317.984375 178.859375 330.378906 198.523438 336.148438 220.632812 C 337.199219 224.652344 337.804688 231.84375 341.785156 236.414062 C 345.765625 240.984375 354.628906 247.285156 354.613281 248.542969 C 354.59375 249.800781 340.398438 252.039062 329.917969 255.390625 C 319.4375 258.742188 304.941406 263.730469 297.703125 266.472656 C 277.535156 274.117188 261.402344 273.230469 244.242188 263.539062 L 229.828125 255.402344 L 231.5 265.515625 C 232.417969 271.078125 233.183594 282.816406 233.199219 291.601562 C 233.226562 307.421875 233.328125 307.628906 243.507812 313.355469 C 249.160156 316.535156 258.800781 320.90625 264.933594 323.070312 C 279.808594 328.324219 287.605469 326.054688 287.054688 307.671875 C 286.671875 294.882812 284.261719 267.101562 288.875 267.101562 C 293.445312 267.101562 294.164062 268.921875 294.332031 280.925781 C 294.4375 288.527344 298.851562 318.195312 296.109375 334.21875 C 294.574219 343.179688 301.46875 349.574219 299.707031 349.574219 C 296.375 349.574219 252.796875 331.636719 233.625 322.226562 C 215.898438 313.527344 198.070312 293.914062 192.421875 276.894531 C 190.039062 269.714844 187.105469 263.230469 185.90625 262.488281 C 184.703125 261.746094 181.921875 266.429688 179.71875 272.894531 C 174.152344 289.242188 161.933594 306.167969 149.445312 314.828125 C 143.640625 318.855469 126.472656 327.28125 111.296875 333.558594 C 96.117188 339.835938 76.234375 344.769531 73.195312 346.394531 C 73.195312 346.394531 74.292969 337.03125 74.15625 327.742188 Z M 166.875 274.128906 C 171.632812 266.261719 177.378906 253.488281 179.640625 245.738281 C 181.886719 238.050781 180.898438 189.695312 182.609375 189.945312 C 184.402344 190.210938 188.90625 239.496094 192.054688 249.003906 C 196.960938 263.820312 207.28125 282.316406 213.539062 287.515625 C 220.109375 292.972656 222.613281 286.699219 222.660156 264.6875 L 222.707031 245.847656 L 235.207031 250.59375 C 267.605469 262.894531 273.476562 255.664062 249.910156 232.484375 C 241.460938 224.171875 230.929688 215.105469 226.585938 211.980469 L 182.351562 189.839844 L 234.546875 205.886719 C 251.742188 211.171875 279.585938 200.035156 284.128906 195.421875 C 288.347656 191.140625 280.773438 185.882812 262.277344 180.261719 C 254.261719 177.824219 243.820312 171.402344 243.203125 170.949219 C 240.515625 168.984375 280.941406 148.5 285.851562 148.574219 C 290.722656 148.65625 290.511719 149.230469 283.835938 154.214844 C 274.910156 160.871094 258.171875 174.140625 273.46875 174.203125 C 278.957031 174.222656 288.179688 176.660156 293.96875 179.617188 L 304.496094 184.988281 L 312.324219 179.410156 C 321.179688 173.101562 338.5 151.414062 338.5 146.636719 C 338.5 137.675781 296.566406 129.679688 272.785156 134.105469 C 253.230469 137.742188 231.238281 147.511719 216.757812 158.988281 C 206.210938 167.34375 180.40625 196.089844 182.21875 189.710938 C 183.238281 186.128906 211.546875 147.382812 213.804688 138.695312 C 216.0625 130.003906 224.503906 106.484375 227.269531 103.628906 C 232.257812 98.476562 232.296875 98.488281 232.296875 105.433594 C 232.296875 109.28125 226.816406 129.542969 225.402344 133.257812 C 222.195312 141.699219 225.570312 142.082031 236.234375 134.480469 C 240.503906 131.441406 250.753906 126.339844 259.011719 123.148438 C 273.867188 117.40625 274.03125 117.222656 274.863281 105.695312 C 275.324219 99.289062 274.976562 90.171875 274.082031 85.429688 C 272.632812 77.691406 271.550781 76.8125 263.476562 76.8125 C 251.539062 76.8125 228.472656 85.644531 215.105469 95.335938 C 209.171875 99.636719 200.460938 109.054688 195.746094 116.269531 C 191.035156 123.484375 186.386719 129.40625 185.417969 129.433594 C 184.449219 129.453125 181.128906 125.382812 178.035156 120.378906 C 163.570312 96.957031 128.3125 75.5625 107.117188 77.339844 C 97.976562 78.109375 97.632812 78.53125 95.390625 91.753906 C 92.273438 110.132812 94.652344 118.429688 103.660156 120.601562 C 110.902344 122.34375 130.695312 132.066406 139.023438 137.96875 C 145.6875 142.695312 142.929688 125.785156 139.308594 113.691406 C 137.527344 107.746094 136.957031 102.003906 138.035156 100.925781 C 140.632812 98.339844 150.074219 110.136719 150.074219 115.964844 C 150.074219 118.472656 156.652344 140.820312 159.550781 149.25 C 162.449219 157.679688 183.09375 189.496094 182.683594 189.910156 C 182.265625 190.320312 155.855469 160.886719 146.738281 154.539062 C 117.703125 134.320312 85.652344 127.816406 54.460938 135.8125 C 31.691406 141.648438 29.414062 143.765625 35.230469 153.703125 C 37.746094 158.007812 45.355469 166.734375 52.136719 173.101562 L 64.46875 184.675781 L 75.824219 179.519531 C 82.066406 176.683594 92.011719 174.339844 97.921875 174.304688 C 111.726562 174.226562 96.363281 156.816406 89.265625 149.261719 L 83.519531 143.140625 L 89.0625 143.140625 C 93.726562 143.140625 125.339844 173.375 122.332031 175.09375 C 121.816406 175.390625 114.875 177.824219 106.914062 180.503906 C 90.898438 185.890625 85.859375 189.097656 85.859375 193.902344 C 85.859375 198.515625 104.941406 203.671875 128.953125 205.546875 L 182.703125 190.015625 L 133.636719 219.605469 C 115.582031 230.5 102.5625 250.964844 105.449219 255.644531 C 107.53125 259.011719 120.496094 256.742188 135.203125 250.4375 C 141.355469 247.800781 146.535156 246.46875 146.714844 247.472656 C 146.894531 248.476562 146.8125 255.222656 146.523438 262.464844 C 145.929688 277.53125 150.144531 291.039062 154.957031 289.492188 C 156.757812 288.910156 162.125 282 166.882812 274.136719 Z M 191.378906 106.4375 C 194.3125 99.558594 200.476562 90.023438 205.074219 85.253906 L 213.433594 76.582031 L 204.765625 59.859375 C 194.132812 39.335938 187.296875 32.480469 181.261719 36.292969 C 175.808594 39.734375 159.617188 68.664062 159.574219 75.039062 C 159.554688 77.683594 162.992188 83.304688 167.210938 87.523438 C 171.429688 91.742188 176.917969 100.539062 179.410156 107.070312 C 181.902344 113.601562 184.417969 118.945312 184.996094 118.945312 C 185.574219 118.945312 188.445312 113.316406 191.378906 106.4375 Z M 191.378906 106.4375 " fill-opacity="1" fill-rule="nonzero"/></g></svg>